# Blender v2.93.4 OBJ File: ''
# www.blender.org
mtllib Axis3D.mtl
o Axis3D_Y
v 0.302000 4.741711 0.100000
v 0.049000 4.419711 0.100000
v 0.049000 4.059711 0.100000
v -0.049000 4.059711 0.100000
v -0.049000 4.420711 0.100000
v -0.302000 4.741711 0.100000
v -0.184000 4.741711 0.100000
v -0.001000 4.506711 0.100000
v 0.184000 4.741711 0.100000
v 0.302000 4.741711 -0.100000
v 0.049000 4.419711 -0.100000
v 0.049000 4.059711 -0.100000
v -0.049000 4.059711 -0.100000
v -0.049000 4.420711 -0.100000
v -0.302000 4.741711 -0.100000
v -0.184000 4.741711 -0.100000
v -0.001000 4.506711 -0.100000
v 0.184000 4.741711 -0.100000
v 0.302000 4.741711 -0.100000
v 0.302000 4.741711 0.100000
v 0.049000 4.419711 -0.100000
v 0.049000 4.419711 0.100000
v 0.049000 4.059711 -0.100000
v 0.049000 4.059711 0.100000
v -0.049000 4.059711 -0.100000
v -0.049000 4.059711 0.100000
v -0.049000 4.420711 -0.100000
v -0.049000 4.420711 0.100000
v -0.302000 4.741711 -0.100000
v -0.302000 4.741711 0.100000
v -0.184000 4.741711 -0.100000
v -0.184000 4.741711 0.100000
v -0.001000 4.506711 -0.100000
v -0.001000 4.506711 0.100000
v 0.184000 4.741711 -0.100000
v 0.184000 4.741711 0.100000
v 0.500000 0.500000 -0.500000
v 0.500000 -0.500000 -0.500000
v 0.500000 0.500000 0.500000
v 0.500000 -0.500000 0.500000
v -0.500000 0.500000 -0.500000
v -0.500000 -0.500000 -0.500000
v -0.500000 0.500000 0.500000
v -0.500000 -0.500000 0.500000
v 4.000000 0.500000 -0.500000
v 4.000000 -0.500000 -0.500000
v 4.000000 0.500000 0.500000
v 4.000000 -0.500000 0.500000
v 0.500000 4.000000 0.500000
v -0.500000 4.000000 0.500000
v 0.500000 4.000000 -0.500000
v -0.500000 4.000000 -0.500000
v 0.500000 -0.500000 -4.000000
v -0.500000 -0.500000 -4.000000
v 0.500000 0.500000 -4.000000
v -0.500000 0.500000 -4.000000
v 4.040718 0.098706 0.375392
v 4.040718 0.098706 0.257392
v 4.322718 0.098706 0.025392
v 4.040718 0.098706 -0.209608
v 4.040718 0.098706 -0.328608
v 4.393718 0.098706 -0.034608
v 4.722718 0.098706 -0.307608
v 4.722718 0.098706 -0.188608
v 4.462718 0.098706 0.025392
v 4.722718 0.098706 0.238392
v 4.722718 0.098706 0.356392
v 4.393718 0.098706 0.084392
v 4.040718 -0.101294 0.375392
v 4.040718 -0.101294 0.257392
v 4.322718 -0.101294 0.025392
v 4.040718 -0.101294 -0.209608
v 4.040718 -0.101294 -0.328608
v 4.393718 -0.101294 -0.034608
v 4.722718 -0.101294 -0.307608
v 4.722718 -0.101294 -0.188608
v 4.462718 -0.101294 0.025392
v 4.722718 -0.101294 0.238392
v 4.722718 -0.101294 0.356392
v 4.393718 -0.101294 0.084392
v 4.040718 -0.101294 0.375392
v 4.040718 0.098706 0.375392
v 4.040718 -0.101294 0.257392
v 4.040718 0.098706 0.257392
v 4.322718 -0.101294 0.025392
v 4.322718 0.098706 0.025392
v 4.040718 -0.101294 -0.209608
v 4.040718 0.098706 -0.209608
v 4.040718 -0.101294 -0.328608
v 4.040718 0.098706 -0.328608
v 4.393718 -0.101294 -0.034608
v 4.393718 0.098706 -0.034608
v 4.722718 -0.101294 -0.307608
v 4.722718 0.098706 -0.307608
v 4.722718 -0.101294 -0.188608
v 4.722718 0.098706 -0.188608
v 4.462718 -0.101294 0.025392
v 4.462718 0.098706 0.025392
v 4.722718 -0.101294 0.238392
v 4.722718 0.098706 0.238392
v 4.722718 -0.101294 0.356392
v 4.722718 0.098706 0.356392
v 4.393718 -0.101294 0.084392
v 4.393718 0.098706 0.084392
v -0.280000 0.100000 -4.760383
v 0.308000 0.100000 -4.760383
v -0.126000 0.100000 -4.166383
v 0.308000 0.100000 -4.166383
v 0.308000 0.100000 -4.078382
v -0.307000 0.100000 -4.078382
v 0.127000 0.100000 -4.672383
v -0.280000 0.100000 -4.672383
v -0.280000 -0.100000 -4.760383
v 0.308000 -0.100000 -4.760383
v -0.126000 -0.100000 -4.166383
v 0.308000 -0.100000 -4.166383
v 0.308000 -0.100000 -4.078382
v -0.307000 -0.100000 -4.078382
v 0.127000 -0.100000 -4.672383
v -0.280000 -0.100000 -4.672383
v -0.280000 -0.100000 -4.760383
v -0.280000 0.100000 -4.760383
v 0.308000 -0.100000 -4.760383
v 0.308000 0.100000 -4.760383
v -0.126000 -0.100000 -4.166383
v -0.126000 0.100000 -4.166383
v 0.308000 -0.100000 -4.166383
v 0.308000 0.100000 -4.166383
v 0.308000 -0.100000 -4.078382
v 0.308000 0.100000 -4.078382
v -0.307000 -0.100000 -4.078382
v -0.307000 0.100000 -4.078382
v 0.127000 -0.100000 -4.672383
v 0.127000 0.100000 -4.672383
v -0.280000 -0.100000 -4.672383
v -0.280000 0.100000 -4.672383
vt 0.500000 0.000000
vt 0.750000 0.000000
vt 0.625000 0.000000
vt 0.875000 0.000000
vt 0.000000 0.000000
vt 1.000000 0.000000
vt 0.125000 0.000000
vt 0.375000 0.000000
vt 0.250000 0.000000
vt 0.500000 0.000000
vt 0.625000 0.000000
vt 0.750000 0.000000
vt 0.875000 0.000000
vt 1.000000 0.000000
vt 0.000000 0.000000
vt 0.125000 0.000000
vt 0.375000 0.000000
vt 0.250000 0.000000
vt 0.625000 0.250000
vt 0.625000 0.500000
vt 0.625000 0.500000
vt 0.625000 0.750000
vt 0.375000 1.000000
vt 0.375000 0.750000
vt 0.625000 0.000000
vt 0.375000 0.250000
vt 0.375000 0.000000
vt 0.375000 0.500000
vt 0.125000 0.750000
vt 0.125000 0.500000
vt 0.625000 0.750000
vt 0.375000 0.500000
vt 0.625000 0.500000
vt 0.375000 0.750000
vt 0.375000 0.500000
vt 0.875000 0.500000
vt 0.625000 0.750000
vt 0.625000 1.000000
vt 0.625000 1.000000
vt 0.625000 0.250000
vt 0.625000 0.250000
vt 0.375000 0.250000
vt 0.625000 0.500000
vt 0.454545 0.000000
vt 0.636364 0.000000
vt 0.545455 0.000000
vt 0.727273 0.000000
vt 0.909091 0.000000
vt 0.818182 0.000000
vt 1.000000 0.000000
vt 0.363636 0.000000
vt 0.181818 0.000000
vt 0.000000 0.000000
vt 0.272727 0.000000
vt 0.090909 0.000000
vt 0.454545 0.000000
vt 0.545455 0.000000
vt 0.636364 0.000000
vt 0.727273 0.000000
vt 0.818182 0.000000
vt 0.909091 0.000000
vt 1.000000 0.000000
vt 0.363636 0.000000
vt 0.181818 0.000000
vt 0.000000 0.000000
vt 0.272727 0.000000
vt 0.090909 0.000000
vt 1.000000 0.000000
vt 0.142857 0.000000
vt 0.000000 0.000000
vt 0.857143 0.000000
vt 0.285714 0.000000
vt 0.714286 0.000000
vt 0.428571 0.000000
vt 0.571429 0.000000
vt 1.000000 0.000000
vt 0.000000 0.000000
vt 0.142857 0.000000
vt 0.857143 0.000000
vt 0.285714 0.000000
vt 0.714286 0.000000
vt 0.428571 0.000000
vt 0.571429 0.000000
vt 0.125000 0.500000
vt 0.875000 0.750000
vt 0.625000 0.000000
vt 0.111111 1.000000
vt 0.000000 0.000000
vt 0.000000 1.000000
vt 0.222222 1.000000
vt 0.111111 0.000000
vt 0.333333 1.000000
vt 0.222222 0.000000
vt 0.444444 1.000000
vt 0.333333 0.000000
vt 0.555556 1.000000
vt 0.444444 0.000000
vt 0.666667 1.000000
vt 0.555556 0.000000
vt 0.777778 0.000000
vt 0.666667 0.000000
vt 0.888889 1.000000
vt 0.777778 1.000000
vt 1.000000 1.000000
vt 0.888889 0.000000
vt 0.083333 1.000000
vt 0.000000 0.000000
vt 0.000000 1.000000
vt 0.166667 1.000000
vt 0.083333 0.000000
vt 0.250000 1.000000
vt 0.166667 0.000000
vt 0.333333 1.000000
vt 0.250000 0.000000
vt 0.416667 1.000000
vt 0.333333 0.000000
vt 0.500000 1.000000
vt 0.416667 0.000000
vt 0.583333 1.000000
vt 0.500000 0.000000
vt 0.666667 1.000000
vt 0.583333 0.000000
vt 0.750000 1.000000
vt 0.666667 0.000000
vt 0.833333 1.000000
vt 0.750000 0.000000
vt 0.916667 1.000000
vt 0.833333 0.000000
vt 1.000000 1.000000
vt 0.916667 0.000000
vt 0.125000 1.000000
vt 0.000000 0.000000
vt 0.000000 1.000000
vt 0.250000 1.000000
vt 0.125000 0.000000
vt 0.375000 1.000000
vt 0.250000 0.000000
vt 0.500000 1.000000
vt 0.375000 0.000000
vt 0.625000 1.000000
vt 0.500000 0.000000
vt 0.750000 1.000000
vt 0.625000 0.000000
vt 0.875000 1.000000
vt 0.750000 0.000000
vt 1.000000 1.000000
vt 0.875000 0.000000
vt 1.000000 0.000000
vt 1.000000 0.000000
vt 1.000000 0.000000
vn 0.0000 -0.0000 1.0000
vn 0.0000 0.0000 -1.0000
vn -1.0000 0.0000 0.0000
vn 0.0000 -1.0000 0.0000
vn 1.0000 0.0000 0.0000
vn 0.0000 1.0000 0.0000
vn 0.9451 -0.3269 0.0000
vn 0.8994 0.4371 0.0000
vn 0.7071 -0.7071 0.0000
vn -0.7071 -0.7071 0.0000
vn -0.9448 -0.3276 0.0000
vn -0.8997 0.4364 0.0000
vn 0.4391 0.8984 0.0000
vn 0.0026 1.0000 0.0000
vn -0.4367 0.8996 0.0000
vn -0.9042 0.0000 -0.4270
vn -0.4266 0.0000 0.9044
vn -1.0000 0.0000 -0.0031
vn -0.9056 0.0000 0.4241
vn -0.4243 0.0000 -0.9055
vn 0.0009 0.0000 -1.0000
vn 0.4251 0.0000 -0.9051
vn 0.9043 0.0000 0.4269
vn 1.0000 0.0000 -0.0011
vn 0.9038 0.0000 -0.4279
vn 0.4259 0.0000 0.9048
vn -0.0007 0.0000 1.0000
vn 0.8916 0.0000 -0.4528
vn -0.7071 0.0000 -0.7071
vn 0.7071 0.0000 -0.7071
vn 0.7071 0.0000 0.7071
vn -0.8916 0.0000 0.4528
vn -0.7071 0.0000 0.7071
usemtl Material
s off
f 5/1/1 7/2/1 6/3/1
f 5/1/1 8/4/1 7/2/1
f 8/4/1 1/5/1 9/6/1
f 8/4/1 2/7/1 1/5/1
f 5/1/1 2/7/1 8/4/1
f 4/8/1 2/7/1 5/1/1
f 4/8/1 3/9/1 2/7/1
f 14/10/2 15/11/2 16/12/2
f 14/10/2 16/12/2 17/13/2
f 17/13/2 18/14/2 10/15/2
f 17/13/2 10/15/2 11/16/2
f 14/10/2 17/13/2 11/16/2
f 13/17/2 14/10/2 11/16/2
f 13/17/2 11/16/2 12/18/2
f 41/19/2 51/20/2 37/21/2
f 39/22/1 44/23/1 40/24/1
f 43/25/3 42/26/3 44/27/3
f 38/28/4 44/29/4 42/30/4
f 40/24/1 47/31/1 39/22/1
f 42/30/4 53/32/4 38/28/4
f 45/33/5 48/34/5 46/35/5
f 37/21/2 46/35/2 38/28/2
f 38/28/4 48/34/4 40/24/4
f 39/22/6 45/33/6 37/21/6
f 52/36/6 49/37/6 51/20/6
f 39/22/1 50/38/1 43/39/1
f 43/25/3 52/40/3 41/19/3
f 37/21/5 49/37/5 39/22/5
f 56/41/2 53/32/2 54/42/2
f 37/21/6 56/41/6 41/19/6
f 38/28/5 55/43/5 37/21/5
f 41/19/3 54/42/3 42/26/3
f 62/44/6 64/45/6 63/46/6
f 62/44/6 65/47/6 64/45/6
f 65/47/6 67/48/6 66/49/6
f 65/47/6 68/50/6 67/48/6
f 62/44/6 68/50/6 65/47/6
f 61/51/6 68/50/6 62/44/6
f 61/51/6 59/52/6 68/50/6
f 59/52/6 57/53/6 68/50/6
f 61/51/6 60/54/6 59/52/6
f 58/55/6 57/53/6 59/52/6
f 74/56/4 75/57/4 76/58/4
f 74/56/4 76/58/4 77/59/4
f 77/59/4 78/60/4 79/61/4
f 77/59/4 79/61/4 80/62/4
f 74/56/4 77/59/4 80/62/4
f 73/63/4 74/56/4 80/62/4
f 73/63/4 80/62/4 71/64/4
f 71/64/4 80/62/4 69/65/4
f 73/63/4 71/64/4 72/66/4
f 70/67/4 71/64/4 69/65/4
f 112/68/6 106/69/6 105/70/6
f 112/68/6 111/71/6 106/69/6
f 111/71/6 107/72/6 106/69/6
f 110/73/6 107/72/6 111/71/6
f 110/73/6 108/74/6 107/72/6
f 110/73/6 109/75/6 108/74/6
f 120/76/4 113/77/4 114/78/4
f 120/76/4 114/78/4 119/79/4
f 119/79/4 114/78/4 115/80/4
f 118/81/4 119/79/4 115/80/4
f 118/81/4 115/80/4 116/82/4
f 118/81/4 116/82/4 117/83/4
f 41/19/2 52/40/2 51/20/2
f 39/22/1 43/39/1 44/23/1
f 43/25/3 41/19/3 42/26/3
f 38/28/4 40/24/4 44/29/4
f 40/24/1 48/34/1 47/31/1
f 42/30/4 54/84/4 53/32/4
f 45/33/5 47/31/5 48/34/5
f 37/21/2 45/33/2 46/35/2
f 38/28/4 46/35/4 48/34/4
f 39/22/6 47/31/6 45/33/6
f 52/36/6 50/85/6 49/37/6
f 39/22/1 49/37/1 50/38/1
f 43/25/3 50/86/3 52/40/3
f 37/21/5 51/20/5 49/37/5
f 56/41/2 55/43/2 53/32/2
f 37/21/6 55/43/6 56/41/6
f 38/28/5 53/32/5 55/43/5
f 41/19/3 56/41/3 54/42/3
s 1
f 22/87/7 19/88/8 20/89/8
f 24/90/9 21/91/7 22/87/7
f 26/92/10 23/93/9 24/90/9
f 28/94/11 25/95/10 26/92/10
f 30/96/12 27/97/11 28/94/11
f 32/98/13 29/99/12 30/96/12
f 32/98/13 33/100/14 31/101/13
f 36/102/15 33/100/14 34/103/14
f 20/104/8 35/105/15 36/102/15
f 84/106/16 81/107/17 82/108/17
f 86/109/18 83/110/16 84/106/16
f 88/111/19 85/112/18 86/109/18
f 90/113/20 87/114/19 88/111/19
f 92/115/21 89/116/20 90/113/20
f 94/117/22 91/118/21 92/115/21
f 96/119/23 93/120/22 94/117/22
f 98/121/24 95/122/23 96/119/23
f 100/123/25 97/124/24 98/121/24
f 102/125/26 99/126/25 100/123/25
f 104/127/27 101/128/26 102/125/26
f 82/129/17 103/130/27 104/127/27
f 124/131/28 121/132/29 122/133/29
f 126/134/28 123/135/28 124/131/28
f 128/136/30 125/137/28 126/134/28
f 130/138/31 127/139/30 128/136/30
f 132/140/32 129/141/31 130/138/31
f 134/142/32 131/143/32 132/140/32
f 136/144/33 133/145/32 134/142/32
f 122/146/29 135/147/33 136/144/33
f 22/87/7 21/91/7 19/88/8
f 24/90/9 23/93/9 21/91/7
f 26/92/10 25/95/10 23/93/9
f 28/94/11 27/97/11 25/95/10
f 30/96/12 29/99/12 27/97/11
f 32/98/13 31/101/13 29/99/12
f 32/98/13 34/103/14 33/100/14
f 36/102/15 35/105/15 33/100/14
f 20/104/8 19/148/8 35/105/15
f 84/106/16 83/110/16 81/107/17
f 86/109/18 85/112/18 83/110/16
f 88/111/19 87/114/19 85/112/18
f 90/113/20 89/116/20 87/114/19
f 92/115/21 91/118/21 89/116/20
f 94/117/22 93/120/22 91/118/21
f 96/119/23 95/122/23 93/120/22
f 98/121/24 97/124/24 95/122/23
f 100/123/25 99/126/25 97/124/24
f 102/125/26 101/128/26 99/126/25
f 104/127/27 103/130/27 101/128/26
f 82/129/17 81/149/17 103/130/27
f 124/131/28 123/135/28 121/132/29
f 126/134/28 125/137/28 123/135/28
f 128/136/30 127/139/30 125/137/28
f 130/138/31 129/141/31 127/139/30
f 132/140/32 131/143/32 129/141/31
f 134/142/32 133/145/32 131/143/32
f 136/144/33 135/147/33 133/145/32
f 122/146/29 121/150/29 135/147/33
